<svg xmlns="http://www.w3.org/2000/svg" width="1920" height="1080" viewBox="0 0 1920 1080" fill="none">
  <defs>
    <linearGradient id="sky" x1="0" y1="0" x2="0" y2="1">
      <stop offset="0%" stop-color="#f7b37d"/>
      <stop offset="45%" stop-color="#7c5fd4"/>
      <stop offset="100%" stop-color="#0f1736"/>
    </linearGradient>
    <linearGradient id="mist" x1="0" y1="0" x2="1" y2="0">
      <stop offset="0%" stop-color="#7cc6ff" stop-opacity="0.7"/>
      <stop offset="100%" stop-color="#3f78ff" stop-opacity="0.3"/>
    </linearGradient>
  </defs>
  <rect width="1920" height="1080" fill="url(#sky)"/>
  <rect y="620" width="1920" height="460" fill="#0b1026"/>
  <path d="M0 690 C260 620 520 670 760 620 C1020 560 1320 620 1920 560 L1920 1080 L0 1080 Z" fill="#0d1533"/>
  <path d="M0 760 C320 700 640 760 960 720 C1280 680 1600 740 1920 700 L1920 1080 L0 1080 Z" fill="#0a122a"/>
  <path d="M0 520 C220 500 400 520 600 480 C920 420 1200 480 1920 430 L1920 700 L0 700 Z" fill="url(#mist)"/>
  <g fill="#1b2a55">
    <path d="M120 360 l30 -160 l30 160 h-20 l-10 -60 l-10 60z"/>
    <path d="M260 380 l40 -190 l40 190 h-25 l-15 -80 l-15 80z"/>
    <path d="M430 360 l35 -170 l35 170 h-20 l-15 -70 l-15 70z"/>
    <path d="M1500 350 l35 -170 l35 170 h-20 l-15 -70 l-15 70z"/>
    <path d="M1650 380 l40 -190 l40 190 h-25 l-15 -80 l-15 80z"/>
  </g>
  <g fill="#24366c" opacity="0.7">
    <rect x="980" y="420" width="420" height="220" rx="18"/>
    <circle cx="1150" cy="520" r="60" fill="#2a4a85"/>
  </g>
  <g fill="#1a264d" opacity="0.8">
    <circle cx="1300" cy="740" r="55"/>
    <circle cx="1350" cy="720" r="12" fill="#ffd9a3"/>
    <circle cx="1278" cy="715" r="10" fill="#ffd9a3"/>
  </g>
</svg>
